<?xml version="1.0" standalone="no"?>
<!DOCTYPE svg PUBLIC "-//W3C//DTD SVG 20010904//EN"
 "http://www.w3.org/TR/2001/REC-SVG-20010904/DTD/svg10.dtd">
<svg version="1.0" xmlns="http://www.w3.org/2000/svg"
 width="216.000000pt" height="215.000000pt" viewBox="0 0 216.000000 215.000000"
 preserveAspectRatio="xMidYMid meet">

<g transform="translate(0.000000,215.000000) scale(0.100000,-0.100000)"
fill="#0e1c9c" stroke="none">
<path d="M540 1605 l-535 -535 388 -387 387 -388 247 248 248 247 -98 97 -97
98 -140 -140 -140 -139 -45 44 -45 44 140 141 140 140 -100 100 -100 100 -145
-145 -145 -145 -47 48 -48 47 435 435 435 435 -95 95 c-52 52 -97 95 -100 95
-3 0 -246 -241 -540 -535z"/>
<path d="M1135 1610 l-240 -240 238 -237 237 -238 145 145 145 145 52 -53 53
-52 -440 -440 -440 -440 98 -97 97 -98 538 538 537 537 -242 242 -243 243
-148 -148 -147 -147 -50 50 -49 50 144 145 145 145 -95 95 -95 95 -240 -240z"/>
</g>
</svg>
